<?xml version="1.0" encoding="UTF-8"?>
<svg version="1.1" viewBox="0 0 1345 1345" xmlns="http://www.w3.org/2000/svg"><g fill="none" stroke-linecap="butt" stroke-width="2.00"><path d="M867.11 457.85 A0.47 0.47 0 0 0 867.71 457.17 Q864.44 452.17 861.71 448.22 Q859.47 444.99 856.06 439.06 Q845.94 421.46 835.99 403.75 Q835.87 403.54 825.94 386.62 Q820.62 377.55 812.63 366.8 Q806.78 358.92 796.88 348.66 Q782.09 333.34 764.69 317.16 Q740.55 294.71 713.53 267.04 Q697.23 250.34 692.04 245.27 Q678.3 231.82 651.52 207.37 c-3.74 -3.43 -8.29 -7.09 -12.98 -7.51 A2.08 2.03 -55.5 0 0 637.38 200.09 Q629.99 203.98 626.18 212.72 c-5.97 13.67 -3.74 29.02 2.38 41.98 Q635.94 270.35 644.79 281.46 c4.25 5.34 7.19 8.42 11.67 10.58 c18.76 9.04 25.47 12.76 45.06 22.36 c20.89 10.25 41.44 21.98 59.36 37.24 Q768.06 357.75 782.07 372.25 Q818.86 410.31 841.34 432.66 Q850.51 441.79 866.16 457.09 Q866.76 457.68 867.11 457.85" stroke="#8b8b88" vector-effect="non-scaling-stroke"/>
<path d="M666.12 928.5 Q669.25 927.71 671.01 927.65 Q695.85 926.88 719.71 931.62 Q732.12 934.08 740.55 936.57 c11.73 3.46 25.89 8.41 39.77 13.8 Q792.4 955.06 805.72 958.85 Q837.56 967.92 865.25 968.53 Q883.19 968.93 896.92 969.12 c10.05 0.14 20.38 1.01 30.59 3.38 c10.71 2.5 20.71 5.24 30.8 9.41 c16.29 6.73 31.43 17.75 46.18 30.03 A1.12 1.12 0 0 0 1005.92 1011.93 c16 -13.65 29.18 -28.43 44.82 -45.76 Q1053.86 962.71 1055.03 961.11 c3.31 -4.5 7.05 -8.41 10.44 -12.87 Q1073.38 937.86 1076.52 933.54 Q1080.41 928.21 1093.21 907.36 c5.7 -9.26 11.67 -21.42 16.52 -30.58 Q1114.79 867.21 1119.17 856.16 A1.12 1.12 0 0 0 1118.65 854.75 c-5.95 -3.15 -9.76 -4.82 -13.68 -8.1 Q1102.76 844.8 1099.74 842.6 A0.66 0.65 29.6 0 0 1098.75 842.87 c-4.81 11.11 -9.77 21.77 -16.86 31.51 Q1071.55 888.61 1059.32 900.08 A0.57 0.57 0 0 1 1058.45 899.36 Q1068.68 883.67 1075.62 866.88 Q1083.02 848.98 1084.91 829.61 A1.34 1.32 -64.8 0 0 1084.55 828.58 c-13.39 -14.22 -24.76 -26.1 -35.23 -40.77 Q1041.92 777.45 1035.01 764.33 c-6.36 -12.08 -17.19 -32.05 -26.4 -50.34 Q1004.4 705.64 996.36 687.24 Q991.03 675.03 981.15 652.86 Q966.15 619.2 953.33 587.21 Q944.4 564.93 939.59 556.86 Q930.26 541.21 919.16 530.62 Q905.31 517.4 859.01 476.58 Q851.73 470.17 848.59 467.1 c-9.43 -9.19 -16.45 -15.56 -25.73 -24.94 Q821.29 440.58 794.92 413.86 C782.19 400.97 768.54 386.32 755.9 373.49 Q749.25 366.75 743.12 362.06 Q729.95 352 715.64 344.37 Q692.72 332.14 690.11 330.72 Q679.65 325.02 664.3 317.57 c-33.11 -16.05 -67.66 -31.5 -99.95 -46.42 Q557.76 268.11 550.62 265.01 Q539.12 260.04 536.88 258.87 Q519.23 249.62 498.88 241.92 c-2.88 -1.09 -7.71 -2.76 -9.72 -0.14 Q488.23 242.99 485.18 248.11 A7.83 7.58 -21.7 0 0 484.49 249.64 c-1.55 4.83 -1.64 11.35 -1.24 16.11 c0.97 11.65 7.72 24.44 15.8 33.18 c9.7 10.49 21.52 20.48 33.93 27.92 Q551.82 338.15 557.98 341.27 Q562.39 343.5 579.14 351.97 c5.74 2.9 11.58 6.79 16.32 9.54 Q597.91 362.93 607.32 369.33 Q613.93 373.82 620.41 377.47 c3.71 2.09 6.12 2.56 10.34 2.75 Q644.52 380.84 657.66 381.98 Q666.72 382.77 673.74 384.29 c8.57 1.86 18.1 3.33 26.91 6.61 Q710.08 394.42 711.38 395.12 Q725.63 402.8 735.31 410.93 Q749.78 423.08 765.55 436.23 Q771.36 441.07 771.96 441.54 c7.68 6.07 14.85 12.48 22.6 18.71 Q824.01 483.91 840.09 496.77 c10.43 8.35 20.27 15.26 32.53 23.81 Q879.2 525.16 885.29 530.02 c10.18 8.11 19.07 18.92 25.65 30.97 c5.11 9.35 10.3 20.76 12.08 28.52 c1.51 6.59 3.13 12.34 4.15 18.31 Q929.37 620.66 930.87 630.12 Q931.2 632.24 930.86 633.84 A0.37 0.37 0 0 1 930.14 633.88 Q927.07 624.5 923.22 616.12 Q913.6 595.16 906.29 582.24 Q902.77 576.02 899.09 571 Q892.72 562.29 890.93 560.32 Q880.97 549.33 869.65 541.35 Q833.65 515.99 798.66 488.08 C766.41 462.34 748.9 448.48 724.59 427.4 Q724.03 426.92 716.38 420.76 Q711.83 417.1 707.59 415.03 Q694.07 408.44 678.88 405.63 c-6.26 -1.16 -18.35 -3.05 -27.5 -4.02 Q622.13 398.51 613 397.76 Q597.45 396.48 570.75 395.97 c-9.18 -0.18 -19.12 0.4 -26.91 1.89 Q493.23 407.5 442.52 418.52 Q436.98 419.73 430.67 421.87 Q427.16 423.07 426.02 425.02 Q424.3 427.93 424.92 430.57 c2.88 12.45 9.88 22.21 20.98 28.87 Q454.44 464.57 462.32 466.85 Q483.04 472.87 505.01 472.38 Q525.78 471.92 542.53 468.26 Q552.95 465.99 560.35 464.65 Q565.23 463.77 571.26 465.47 Q597.7 472.92 613.09 475.94 c5.74 1.12 9.45 1.99 14.58 2.66 Q645.06 480.85 653.85 482.2 Q656.45 482.59 658.67 482.68 c3.52 0.14 7.31 0.06 9.77 2.57 Q677.67 494.67 696 514.43 c12.36 13.33 25.25 25.57 37.48 39.04 Q744.28 565.36 746.12 567.64 Q760.32 585.34 768.67 604.35 Q776.14 621.34 781.28 638 Q784.91 649.76 787.88 669.22 Q791.58 693.44 787.94 716.22 Q785.59 730.91 783.23 740.75 c-5.95 24.93 -16.91 49.65 -32.92 70.28 Q750.08 811.33 750.2 811.57 A0.55 0.55 0 0 0 751.04 811.75 Q760.67 803.97 762.09 802.82 Q784.62 784.59 797.5 759.63 Q798.78 757.15 801.82 750.33 Q805.48 742.15 805.94 740.96 Q809.21 732.56 811.43 721.44 c2.92 -14.63 4.38 -27.71 4.29 -42.35 Q815.63 665.42 815.42 657.05 A0.14 0.14 0 0 1 815.67 656.97 Q816.25 657.84 816.47 658.76 Q821.69 679.9 822.29 703.04 c0.45 17.52 -2.31 34.67 -7.21 51.02 Q804.92 787.89 779.33 812.06 Q772.7 818.31 769.65 820.91 Q752.93 835.1 734.58 843.54 c-4.79 2.2 -10.09 4.76 -15.52 6.65 Q693.66 858.99 669.11 860.29 Q649.04 861.36 634.72 861.1 Q601.34 860.52 592.5 860.56 Q562.78 860.69 533.53 869.6 c-18.87 5.75 -36.61 14.94 -51.47 27.14 Q472.22 904.83 466.41 916.03 c-3.76 7.26 -4.65 14.99 -2.95 22.54 Q465.65 948.31 475.83 951.19 Q480.93 952.63 485.76 952.2 c8.4 -0.75 12.6 -1.16 20.14 -2.38 c22.05 -3.55 43.68 -5.83 63.86 -4.55 Q584.56 946.2 611.25 949.18 Q626.27 950.86 648 951.51 Q648.81 951.54 665.34 953.24 Q665.41 953.25 675.36 954.35 c17.02 1.89 32.52 6.57 49.24 12.09 Q736.3 970.3 745.49 974.61 Q758.3 980.62 765.76 983.9 Q775.08 988 790.11 993.62 c7.9 2.95 18.42 4.93 24.42 6.73 c6.85 2.06 12.07 2.59 21.21 4.17 c11.02 1.9 24.12 3.05 36.43 3.15 c4.37 0.03 14.91 -0.29 22.31 0.33 c6.24 0.53 11.32 0.4 18.02 1.64 Q921.85 1011.37 922.49 1011.5 Q942.04 1015.7 957.7 1027.3 Q962.87 1031.14 974.11 1039.76 A0.83 0.83 0 0 0 975.32 1039.55 Q976.52 1037.68 977.61 1036.85 Q984.27 1031.71 990.71 1026.22 A0.74 0.73 44.7 0 0 990.7 1025.1 Q983.77 1019.22 977.2 1013.85 Q970.18 1008.12 962.77 1003.93 Q933.12 987.2 899.26 985.97 Q896.28 985.86 868.77 985.02 c-32.71 -1.01 -65.09 -9 -95.17 -22.48 Q757.28 955.23 752.31 953.19 Q739.16 947.82 730.74 944.55 Q711.84 937.21 689.87 932.94 Q677.32 930.5 666.13 928.73 A0.12 0.12 0 0 1 666.12 928.5" stroke="#8b8b88" vector-effect="non-scaling-stroke"/>
<path d="M911.42 491.65 Q911.41 490.53 911.04 489.28 Q905.03 468.99 898.3 439.68 Q896.96 433.83 895.27 428.14 c-1.88 -6.31 -3.52 -12.81 -5.83 -19.24 Q887.53 403.58 886.46 401.31 Q876.74 380.78 869.72 369.28 Q832.94 308.98 804.61 261.14 Q803.68 259.56 802.73 258.74 A2.23 2.21 -23.6 0 0 801.33 258.2 c-3.45 -0.12 -5.61 -1.07 -8.66 1.22 Q782.67 266.95 779.91 278.64 Q778.54 284.45 777.68 291 Q776.32 301.31 783.33 307.93 Q786.99 311.38 790.7 314.82 Q800.15 323.57 816.64 341.31 c9.99 10.77 17.21 20.93 24.71 33.13 Q858.17 401.81 874.53 430.64 Q876.14 433.47 877.03 434.97 Q892.6 460.94 911.13 491.74 A0.16 0.16 0 0 0 911.42 491.65" stroke="#8b8b88" vector-effect="non-scaling-stroke"/>
<path d="M494.26 493.93 Q464.91 491.99 437.04 481.17 A0.25 0.24 -73.2 0 0 436.71 481.35 Q430.43 514.36 423.65 545.34 c-3.53 16.15 -5.69 25.61 -6.95 34.92 A1.46 1.46 0 0 1 415.25 581.53 h-71.99 A0.4 0.39 5.2 0 0 342.87 581.85 L330.59 640.69 A0.75 0.75 0 0 0 331.32 641.59 h71.88 A0.74 0.74 0 0 1 403.92 642.49 L387.36 718.96 A1.1 1.1 0 0 1 386.29 719.82 H314 A0.82 0.81 5 0 0 313.19 720.49 Q308.07 748.42 300.77 780.02 A0.12 0.12 0 0 0 300.89 780.16 h72.78 A0.88 0.88 0 0 1 374.53 781.21 Q370.67 800.81 369.87 804.43 Q364.13 830.58 358.78 857.07 Q358 860.92 357.22 863.94 c-1.37 5.33 -1.65 6.92 -2.08 11.3 A0.62 0.62 0 0 0 355.77 875.92 c20.86 -0.43 40.55 -0.7 59.57 0.01 A0.45 0.44 -82.5 0 0 415.8 875.57 L435.65 780.4 A0.31 0.3 -84.2 0 1 435.95 780.15 h77.27 A0.72 0.72 0 0 1 513.92 781.02 L496.49 861.46 A0.59 0.59 0 0 0 497.35 862.1 Q519.59 850.04 544.54 845.07 Q552.58 843.47 559.92 843.14 A1.03 1.02 4.8 0 0 560.87 842.34 L574.1 781.25 A1.52 1.51 6.2 0 1 575.58 780.06 h71.01 A0.87 0.86 -83.7 0 0 647.43 779.38 L660.16 720.61 A0.67 0.67 0 0 0 659.51 719.8 h-72.75 A0.44 0.44 0 0 1 586.33 719.27 L603.02 642.25 A1.07 1.07 0 0 1 604.07 641.4 Q637.25 641.57 673.03 641.56 c2.73 0 3.59 -0.79 4.17 -3.34 Q680.97 621.59 689.74 582.23 A0.6 0.6 0 0 0 689.15 581.5 h-73.05 A0.63 0.62 -84.3 0 1 615.49 580.75 L631.93 501.93 A0.97 0.97 0 0 0 631.18 500.78 c-17.01 -3.7 -37.97 -7.33 -56.09 -12.6 A0.69 0.69 0 0 0 574.22 488.7 L555.01 580.78 A0.95 0.94 5.5 0 1 554.08 581.54 h-75.92 A0.64 0.64 0 0 1 477.53 580.77 Q481.84 559.56 487.32 534.28 Q488.72 527.82 490.88 515.17 c1.27 -7.4 2.9 -14.19 3.87 -20.62 A0.54 0.53 -83.6 0 0 494.26 493.93" stroke="#8b8b88" vector-effect="non-scaling-stroke"/>
<path d="M1144.05 850.05 Q1134.35 876.23 1120.5 901.27 Q1090.75 955.03 1048.63 998.9 Q1037.21 1010.8 1037.01 1011.01 Q1029.27 1019.23 1004.47 1041.47 Q992.31 1052.37 977.2 1063.06 A0.95 0.95 0 0 0 977.19 1064.61 Q985.44 1070.52 995.79 1078.71 Q1019.22 1097.25 1042.55 1115.6 c10.11 7.96 17.97 14.63 27.53 21.93 A0.8 0.79 -46.6 0 0 1071.08 1137.5 c13.13 -11.36 24.64 -22.72 37.86 -35.71 Q1121.08 1089.87 1128.71 1081.41 Q1154.29 1053.05 1175.88 1020.87 c3.68 -5.48 8.78 -12.22 13.01 -18.98 c11.33 -18.11 22.34 -36.15 31.42 -55.19 c1.08 -2.28 2.64 -4.55 3.71 -6.92 Q1229.77 927.15 1234.19 915.98 A1.21 1.21 0 0 0 1233.75 914.53 Q1229.49 911.58 1227.39 909.85 c-4.19 -3.43 -8.88 -5.84 -13.27 -9.21 Q1203.65 892.6 1184.85 878.92 Q1163.71 863.53 1145.51 849.63 A0.95 0.94 -60.9 0 0 1144.05 850.05" stroke="#8b8b88" vector-effect="non-scaling-stroke"/>
<path d="M464.89 641.58 A0.68 0.68 0 0 0 464.22 642.12 L447.59 718.95 A0.68 0.68 0 0 0 448.25 719.77 h77.7 A0.68 0.68 0 0 0 526.62 719.23 L543.26 642.4 A0.68 0.68 0 0 0 542.6 641.58 h-77.71" stroke="#8b8b88" vector-effect="non-scaling-stroke"/>
<path d="M1063.32 1040.19 A27.54 27.07 -92.9 0 0 1037.67 1069.06 A27.54 27.07 -92.9 0 0 1066.1 1095.19 A27.54 27.07 -92.9 0 0 1091.75 1066.32 A27.54 27.07 -92.9 0 0 1063.32 1040.19" stroke="#8b8b88" vector-effect="non-scaling-stroke"/>
</g>
<path d="M1114.06 202.93 Q1123.46 211.86 1142.03 230.96 Q1145.41 234.44 1155.59 245.83 c12.46 13.95 23.78 28.18 35.43 43.48 c9.8 12.87 21.08 29.99 28.16 41 c24.4 37.91 44.33 79.16 59.63 120.59 c3.24 8.76 6.71 17.57 8.86 24.34 Q1294.32 496.22 1300.75 521.72 Q1303.16 531.25 1304.71 540.01 c1.4 7.81 3.48 16.46 4.69 24.53 Q1312.72 586.67 1313.7 596.5 c1.43 14.26 2.9 25.51 3.61 38.04 Q1318.96 664.03 1318.81 680 Q1318.73 689.5 1317.44 716 Q1316.99 725.31 1316.52 728.5 c-0.82 5.46 -0.82 10.49 -1.51 16.66 Q1307.94 808.54 1288.76 869.44 c-3.26 10.34 -7.03 19.56 -9.87 28.03 c-3.27 9.76 -8.25 20.89 -12.1 30.71 Q1264.19 934.8 1261.56 940.31 Q1250.53 963.45 1247.36 969.37 Q1244.15 975.34 1236.87 988.36 Q1230.48 999.79 1225.9 1007.08 Q1211.99 1029.23 1198.98 1047.5 Q1188.37 1062.39 1171.79 1082.55 c-34.11 41.46 -73.55 78.24 -116.73 109.49 Q1038.59 1203.95 1015.03 1219.06 Q993.25 1233.03 973.18 1243.12 Q942.68 1258.47 922.54 1266.75 Q882.69 1283.14 843.09 1293.51 c-12.4 3.24 -18.58 5.03 -28.49 7.09 Q788.03 1306.15 761.18 1309.85 Q750.4 1311.34 741.78 1311.94 c-2.86 0.2 -5.84 0.82 -8.78 1.06 Q696.71 1316.05 656.25 1314.93 Q651.05 1314.79 626.43 1313.29 Q621.62 1313 617.11 1312.36 Q613.96 1311.91 607.76 1311.4 Q595.77 1310.41 578.02 1307.29 c-2.54 -0.45 -5.79 -0.54 -8.67 -1.14 c-8.81 -1.83 -17.49 -3.07 -24.77 -4.65 Q512.96 1294.66 479.27 1284.22 Q471.64 1281.86 463.95 1278.9 c-6.57 -2.53 -13.1 -4.63 -20.31 -7.55 Q420.16 1261.82 412.88 1258.37 Q393.48 1249.19 381.48 1243.25 Q376.99 1241.03 361.4 1232.29 Q351.76 1226.89 341.69 1220.35 Q318.78 1205.47 317.45 1204.55 Q289.21 1185.18 262.49 1162.95 Q251.52 1153.82 241.63 1144.56 Q226.5 1130.36 221.54 1125.38 Q212.46 1116.24 194.43 1096.25 c-19.76 -21.9 -40.69 -50.22 -59.39 -79.38 Q126.93 1004.23 123.78 998.55 c-4.69 -8.46 -9.21 -15.81 -14.09 -25.21 Q99.55 953.82 91.77 937.27 Q88.13 929.52 80.37 910.17 Q74.94 896.61 70.26 882.58 C58.23 846.54 48.68 811.52 43.43 774.7 Q41.85 763.63 40.6 754.37 Q38.94 741.99 38.3 734.6 C37.38 723.94 36.6 718.4 36.18 708.11 Q35.04 679.95 35.91 649.76 Q36.2 640 36.79 634.28 Q37.88 623.78 38.15 618.84 Q38.95 604.11 41.48 588.01 c1.28 -8.17 2.24 -18.91 3.97 -28.05 C48.16 545.7 51 531 55.02 516.07 Q61.29 492.73 67.08 475.54 Q69.55 468.23 74.34 454.71 Q78.58 442.77 82.14 434.08 Q89.36 416.46 91.12 412.59 Q101.31 390.12 114.09 366.56 Q124.56 347.25 143.81 317.55 Q145.3 315.25 149.61 309.33 Q151.49 306.74 155.38 301.09 Q175.18 272.26 201.71 243.2 Q241.97 199.1 285.75 165.73 Q330.69 131.47 380.57 105.09 c20.65 -10.93 40.39 -19.5 62.48 -28.41 Q458.93 70.28 476.7 64.48 C514.5 52.14 553.6 42.82 593.84 37.77 Q618.75 34.64 643.75 33.09 Q673 31.27 706.87 32.89 Q732.78 34.13 752.99 36.45 Q761.56 37.43 766.01 38.2 c5.68 0.98 10.81 1.36 17.35 2.48 c10.65 1.84 16.66 2.77 25.76 4.79 Q838.09 51.89 870.78 61.82 Q880.11 64.65 885.05 66.57 c5.81 2.26 12.37 4.18 18.85 6.79 Q919.61 79.68 922.19 80.72 c19.35 7.84 36.69 16.78 57.13 27.38 Q999.71 118.68 1017.21 129.8 c34.59 21.97 65.43 44.56 94.25 70.74 Q1113.18 202.1 1114.06 202.93 Z M867.11 457.85 A0.47 0.47 0 0 0 867.71 457.17 Q864.44 452.17 861.71 448.22 Q859.47 444.99 856.06 439.06 Q845.94 421.46 835.99 403.75 Q835.87 403.54 825.94 386.62 Q820.62 377.55 812.63 366.8 Q806.78 358.92 796.88 348.66 Q782.09 333.34 764.69 317.16 Q740.55 294.71 713.53 267.04 Q697.23 250.34 692.04 245.27 Q678.3 231.82 651.52 207.37 c-3.74 -3.43 -8.29 -7.09 -12.98 -7.51 A2.08 2.03 -55.5 0 0 637.38 200.09 Q629.99 203.98 626.18 212.72 c-5.97 13.67 -3.74 29.02 2.38 41.98 Q635.94 270.35 644.79 281.46 c4.25 5.34 7.19 8.42 11.67 10.58 c18.76 9.04 25.47 12.76 45.06 22.36 c20.89 10.25 41.44 21.98 59.36 37.24 Q768.06 357.75 782.07 372.25 Q818.86 410.31 841.34 432.66 Q850.51 441.79 866.16 457.09 Q866.76 457.68 867.11 457.85 Z M666.12 928.5 Q669.25 927.71 671.01 927.65 Q695.85 926.88 719.71 931.62 Q732.12 934.08 740.55 936.57 c11.73 3.46 25.89 8.41 39.77 13.8 Q792.4 955.06 805.72 958.85 Q837.56 967.92 865.25 968.53 Q883.19 968.93 896.92 969.12 c10.05 0.14 20.38 1.01 30.59 3.38 c10.71 2.5 20.71 5.24 30.8 9.41 c16.29 6.73 31.43 17.75 46.18 30.03 A1.12 1.12 0 0 0 1005.92 1011.93 c16 -13.65 29.18 -28.43 44.82 -45.76 Q1053.86 962.71 1055.03 961.11 c3.31 -4.5 7.05 -8.41 10.44 -12.87 Q1073.38 937.86 1076.52 933.54 Q1080.41 928.21 1093.21 907.36 c5.7 -9.26 11.67 -21.42 16.52 -30.58 Q1114.79 867.21 1119.17 856.16 A1.12 1.12 0 0 0 1118.65 854.75 c-5.95 -3.15 -9.76 -4.82 -13.68 -8.1 Q1102.76 844.8 1099.74 842.6 A0.66 0.65 29.6 0 0 1098.75 842.87 c-4.81 11.11 -9.77 21.77 -16.86 31.51 Q1071.55 888.61 1059.32 900.08 A0.57 0.57 0 0 1 1058.45 899.36 Q1068.68 883.67 1075.62 866.88 Q1083.02 848.98 1084.91 829.61 A1.34 1.32 -64.8 0 0 1084.55 828.58 c-13.39 -14.22 -24.76 -26.1 -35.23 -40.77 Q1041.92 777.45 1035.01 764.33 c-6.36 -12.08 -17.19 -32.05 -26.4 -50.34 Q1004.4 705.64 996.36 687.24 Q991.03 675.03 981.15 652.86 Q966.15 619.2 953.33 587.21 Q944.4 564.93 939.59 556.86 Q930.26 541.21 919.16 530.62 Q905.31 517.4 859.01 476.58 Q851.73 470.17 848.59 467.1 c-9.43 -9.19 -16.45 -15.56 -25.73 -24.94 Q821.29 440.58 794.92 413.86 C782.19 400.97 768.54 386.32 755.9 373.49 Q749.25 366.75 743.12 362.06 Q729.95 352 715.64 344.37 Q692.72 332.14 690.11 330.72 Q679.65 325.02 664.3 317.57 c-33.11 -16.05 -67.66 -31.5 -99.95 -46.42 Q557.76 268.11 550.62 265.01 Q539.12 260.04 536.88 258.87 Q519.23 249.62 498.88 241.92 c-2.88 -1.09 -7.71 -2.76 -9.72 -0.14 Q488.23 242.99 485.18 248.11 A7.83 7.58 -21.7 0 0 484.49 249.64 c-1.55 4.83 -1.64 11.35 -1.24 16.11 c0.97 11.65 7.72 24.44 15.8 33.18 c9.7 10.49 21.52 20.48 33.93 27.92 Q551.82 338.15 557.98 341.27 Q562.39 343.5 579.14 351.97 c5.74 2.9 11.58 6.79 16.32 9.54 Q597.91 362.93 607.32 369.33 Q613.93 373.82 620.41 377.47 c3.71 2.09 6.12 2.56 10.34 2.75 Q644.52 380.84 657.66 381.98 Q666.72 382.77 673.74 384.29 c8.57 1.86 18.1 3.33 26.91 6.61 Q710.08 394.42 711.38 395.12 Q725.63 402.8 735.31 410.93 Q749.78 423.08 765.55 436.23 Q771.36 441.07 771.96 441.54 c7.68 6.07 14.85 12.48 22.6 18.71 Q824.01 483.91 840.09 496.77 c10.43 8.35 20.27 15.26 32.53 23.81 Q879.2 525.16 885.29 530.02 c10.18 8.11 19.07 18.92 25.65 30.97 c5.11 9.35 10.3 20.76 12.08 28.52 c1.51 6.59 3.13 12.34 4.15 18.31 Q929.37 620.66 930.87 630.12 Q931.2 632.24 930.86 633.84 A0.37 0.37 0 0 1 930.14 633.88 Q927.07 624.5 923.22 616.12 Q913.6 595.16 906.29 582.24 Q902.77 576.02 899.09 571 Q892.72 562.29 890.93 560.32 Q880.97 549.33 869.65 541.35 Q833.65 515.99 798.66 488.08 C766.41 462.34 748.9 448.48 724.59 427.4 Q724.03 426.92 716.38 420.76 Q711.83 417.1 707.59 415.03 Q694.07 408.44 678.88 405.63 c-6.26 -1.16 -18.35 -3.05 -27.5 -4.02 Q622.13 398.51 613 397.76 Q597.45 396.48 570.75 395.97 c-9.18 -0.18 -19.12 0.4 -26.91 1.89 Q493.23 407.5 442.52 418.52 Q436.98 419.73 430.67 421.87 Q427.16 423.07 426.02 425.02 Q424.3 427.93 424.92 430.57 c2.88 12.45 9.88 22.21 20.98 28.87 Q454.44 464.57 462.32 466.85 Q483.04 472.87 505.01 472.38 Q525.78 471.92 542.53 468.26 Q552.95 465.99 560.35 464.65 Q565.23 463.77 571.26 465.47 Q597.7 472.92 613.09 475.94 c5.74 1.12 9.45 1.99 14.58 2.66 Q645.06 480.85 653.85 482.2 Q656.45 482.59 658.67 482.68 c3.52 0.14 7.31 0.06 9.77 2.57 Q677.67 494.67 696 514.43 c12.36 13.33 25.25 25.57 37.48 39.04 Q744.28 565.36 746.12 567.64 Q760.32 585.34 768.67 604.35 Q776.14 621.34 781.28 638 Q784.91 649.76 787.88 669.22 Q791.58 693.44 787.94 716.22 Q785.59 730.91 783.23 740.75 c-5.95 24.93 -16.91 49.65 -32.92 70.28 Q750.08 811.33 750.2 811.57 A0.55 0.55 0 0 0 751.04 811.75 Q760.67 803.97 762.09 802.82 Q784.62 784.59 797.5 759.63 Q798.78 757.15 801.82 750.33 Q805.48 742.15 805.94 740.96 Q809.21 732.56 811.43 721.44 c2.92 -14.63 4.38 -27.71 4.29 -42.35 Q815.63 665.42 815.42 657.05 A0.14 0.14 0 0 1 815.67 656.97 Q816.25 657.84 816.47 658.76 Q821.69 679.9 822.29 703.04 c0.45 17.52 -2.31 34.67 -7.21 51.02 Q804.92 787.89 779.33 812.06 Q772.7 818.31 769.65 820.91 Q752.93 835.1 734.58 843.54 c-4.79 2.2 -10.09 4.76 -15.52 6.65 Q693.66 858.99 669.11 860.29 Q649.04 861.36 634.72 861.1 Q601.34 860.52 592.5 860.56 Q562.78 860.69 533.53 869.6 c-18.87 5.75 -36.61 14.94 -51.47 27.14 Q472.22 904.83 466.41 916.03 c-3.76 7.26 -4.65 14.99 -2.95 22.54 Q465.65 948.31 475.83 951.19 Q480.93 952.63 485.76 952.2 c8.4 -0.75 12.6 -1.16 20.14 -2.38 c22.05 -3.55 43.68 -5.83 63.86 -4.55 Q584.56 946.2 611.25 949.18 Q626.27 950.86 648 951.51 Q648.81 951.54 665.34 953.24 Q665.41 953.25 675.36 954.35 c17.02 1.89 32.52 6.57 49.24 12.09 Q736.3 970.3 745.49 974.61 Q758.3 980.62 765.76 983.9 Q775.08 988 790.11 993.62 c7.9 2.95 18.42 4.93 24.42 6.73 c6.85 2.06 12.07 2.59 21.21 4.17 c11.02 1.9 24.12 3.05 36.43 3.15 c4.37 0.03 14.91 -0.29 22.31 0.33 c6.24 0.53 11.32 0.4 18.02 1.64 Q921.85 1011.37 922.49 1011.5 Q942.04 1015.7 957.7 1027.3 Q962.87 1031.14 974.11 1039.76 A0.83 0.83 0 0 0 975.32 1039.55 Q976.52 1037.68 977.61 1036.85 Q984.27 1031.71 990.71 1026.22 A0.74 0.73 44.7 0 0 990.7 1025.1 Q983.77 1019.22 977.2 1013.85 Q970.18 1008.12 962.77 1003.93 Q933.12 987.2 899.26 985.97 Q896.28 985.86 868.77 985.02 c-32.71 -1.01 -65.09 -9 -95.17 -22.48 Q757.28 955.23 752.31 953.19 Q739.16 947.82 730.74 944.55 Q711.84 937.21 689.87 932.94 Q677.32 930.5 666.13 928.73 A0.12 0.12 0 0 1 666.12 928.5 Z M911.42 491.65 Q911.41 490.53 911.04 489.28 Q905.03 468.99 898.3 439.68 Q896.96 433.83 895.27 428.14 c-1.88 -6.31 -3.52 -12.81 -5.83 -19.24 Q887.53 403.58 886.46 401.31 Q876.74 380.78 869.72 369.28 Q832.94 308.98 804.61 261.14 Q803.68 259.56 802.73 258.74 A2.23 2.21 -23.6 0 0 801.33 258.2 c-3.45 -0.12 -5.61 -1.07 -8.66 1.22 Q782.67 266.95 779.91 278.64 Q778.54 284.45 777.68 291 Q776.32 301.31 783.33 307.93 Q786.99 311.38 790.7 314.82 Q800.15 323.57 816.64 341.31 c9.99 10.77 17.21 20.93 24.71 33.13 Q858.17 401.81 874.53 430.64 Q876.14 433.47 877.03 434.97 Q892.6 460.94 911.13 491.74 A0.16 0.16 0 0 0 911.42 491.65 Z M494.26 493.93 Q464.91 491.99 437.04 481.17 A0.25 0.24 -73.2 0 0 436.71 481.35 Q430.43 514.36 423.65 545.34 c-3.53 16.15 -5.69 25.61 -6.95 34.92 A1.46 1.46 0 0 1 415.25 581.53 h-71.99 A0.4 0.39 5.2 0 0 342.87 581.85 L330.59 640.69 A0.75 0.75 0 0 0 331.32 641.59 h71.88 A0.74 0.74 0 0 1 403.92 642.49 L387.36 718.96 A1.1 1.1 0 0 1 386.29 719.82 H314 A0.82 0.81 5 0 0 313.19 720.49 Q308.07 748.42 300.77 780.02 A0.12 0.12 0 0 0 300.89 780.16 h72.78 A0.88 0.88 0 0 1 374.53 781.21 Q370.67 800.81 369.87 804.43 Q364.13 830.58 358.78 857.07 Q358 860.92 357.22 863.94 c-1.37 5.33 -1.65 6.92 -2.08 11.3 A0.62 0.62 0 0 0 355.77 875.92 c20.86 -0.43 40.55 -0.7 59.57 0.01 A0.45 0.44 -82.5 0 0 415.8 875.57 L435.65 780.4 A0.31 0.3 -84.2 0 1 435.95 780.15 h77.27 A0.72 0.72 0 0 1 513.92 781.02 L496.49 861.46 A0.59 0.59 0 0 0 497.35 862.1 Q519.59 850.04 544.54 845.07 Q552.58 843.47 559.92 843.14 A1.03 1.02 4.8 0 0 560.87 842.34 L574.1 781.25 A1.52 1.51 6.2 0 1 575.58 780.06 h71.01 A0.87 0.86 -83.7 0 0 647.43 779.38 L660.16 720.61 A0.67 0.67 0 0 0 659.51 719.8 h-72.75 A0.44 0.44 0 0 1 586.33 719.27 L603.02 642.25 A1.07 1.07 0 0 1 604.07 641.4 Q637.25 641.57 673.03 641.56 c2.73 0 3.59 -0.79 4.17 -3.34 Q680.97 621.59 689.74 582.23 A0.6 0.6 0 0 0 689.15 581.5 h-73.05 A0.63 0.62 -84.3 0 1 615.49 580.75 L631.93 501.93 A0.97 0.97 0 0 0 631.18 500.78 c-17.01 -3.7 -37.97 -7.33 -56.09 -12.6 A0.69 0.69 0 0 0 574.22 488.7 L555.01 580.78 A0.95 0.94 5.5 0 1 554.08 581.54 h-75.92 A0.64 0.64 0 0 1 477.53 580.77 Q481.84 559.56 487.32 534.28 Q488.72 527.82 490.88 515.17 c1.27 -7.4 2.9 -14.19 3.87 -20.62 A0.54 0.53 -83.6 0 0 494.26 493.93 Z M1144.05 850.05 Q1134.35 876.23 1120.5 901.27 Q1090.75 955.03 1048.63 998.9 Q1037.21 1010.8 1037.01 1011.01 Q1029.27 1019.23 1004.47 1041.47 Q992.31 1052.37 977.2 1063.06 A0.95 0.95 0 0 0 977.19 1064.61 Q985.44 1070.52 995.79 1078.71 Q1019.22 1097.25 1042.55 1115.6 c10.11 7.96 17.97 14.63 27.53 21.93 A0.8 0.79 -46.6 0 0 1071.08 1137.5 c13.13 -11.36 24.64 -22.72 37.86 -35.71 Q1121.08 1089.87 1128.71 1081.41 Q1154.29 1053.05 1175.88 1020.87 c3.68 -5.48 8.78 -12.22 13.01 -18.98 c11.33 -18.11 22.34 -36.15 31.42 -55.19 c1.08 -2.28 2.64 -4.55 3.71 -6.92 Q1229.77 927.15 1234.19 915.98 A1.21 1.21 0 0 0 1233.75 914.53 Q1229.49 911.58 1227.39 909.85 c-4.19 -3.43 -8.88 -5.84 -13.27 -9.21 Q1203.65 892.6 1184.85 878.92 Q1163.71 863.53 1145.51 849.63 A0.95 0.94 -60.9 0 0 1144.05 850.05 Z" fill="#161712"/>
<path d="M867.11 457.85 Q866.76 457.68 866.16 457.09 Q850.51 441.79 841.34 432.66 Q818.86 410.31 782.07 372.25 Q768.06 357.75 760.88 351.64 C742.96 336.38 722.41 324.65 701.52 314.4 c-19.59 -9.6 -26.3 -13.32 -45.06 -22.36 c-4.48 -2.16 -7.42 -5.24 -11.67 -10.58 Q635.94 270.35 628.56 254.7 c-6.12 -12.96 -8.35 -28.31 -2.38 -41.98 Q629.99 203.98 637.38 200.09 A2.08 2.03 -55.5 0 1 638.54 199.86 c4.69 0.42 9.24 4.08 12.98 7.51 Q678.3 231.82 692.04 245.27 Q697.23 250.34 713.53 267.04 Q740.55 294.71 764.69 317.16 Q782.09 333.34 796.88 348.66 Q806.78 358.92 812.63 366.8 Q820.62 377.55 825.94 386.62 Q835.87 403.54 835.99 403.75 Q845.94 421.46 856.06 439.06 Q859.47 444.99 861.71 448.22 Q864.44 452.17 867.71 457.17 A0.47 0.47 0 0 1 867.11 457.85 Z" fill="#fffffe"/>
<path d="M666.13 928.73 Q677.32 930.5 689.87 932.94 Q711.84 937.21 730.74 944.55 Q739.16 947.82 752.31 953.19 Q757.28 955.23 773.6 962.54 c30.08 13.48 62.46 21.47 95.17 22.48 Q896.28 985.86 899.26 985.97 Q933.12 987.2 962.77 1003.93 Q970.18 1008.12 977.2 1013.85 Q983.77 1019.22 990.7 1025.1 A0.74 0.73 44.7 0 1 990.71 1026.22 Q984.27 1031.71 977.61 1036.85 Q976.52 1037.68 975.32 1039.55 A0.83 0.83 0 0 1 974.11 1039.76 Q962.87 1031.14 957.7 1027.3 Q942.04 1015.7 922.49 1011.5 Q921.85 1011.37 912.5 1009.64 c-6.7 -1.24 -11.78 -1.11 -18.02 -1.64 c-7.4 -0.62 -17.94 -0.3 -22.31 -0.33 c-12.31 -0.1 -25.41 -1.25 -36.43 -3.15 c-9.14 -1.58 -14.36 -2.11 -21.21 -4.17 c-6 -1.8 -16.52 -3.78 -24.42 -6.73 Q775.08 988 765.76 983.9 Q758.3 980.62 745.49 974.61 Q736.3 970.3 724.6 966.44 c-16.72 -5.52 -32.22 -10.2 -49.24 -12.09 Q665.41 953.25 665.34 953.24 Q648.81 951.54 648 951.51 Q626.27 950.86 611.25 949.18 Q584.56 946.2 569.76 945.27 c-20.18 -1.28 -41.81 1 -63.86 4.55 c-7.54 1.22 -11.74 1.63 -20.14 2.38 Q480.93 952.63 475.83 951.19 Q465.65 948.31 463.46 938.57 c-1.7 -7.55 -0.81 -15.28 2.95 -22.54 Q472.22 904.83 482.06 896.74 c14.86 -12.2 32.6 -21.39 51.47 -27.14 Q562.78 860.69 592.5 860.56 Q601.34 860.52 634.72 861.1 Q649.04 861.36 669.11 860.29 Q693.66 858.99 719.06 850.19 c5.43 -1.89 10.73 -4.45 15.52 -6.65 Q752.93 835.1 769.65 820.91 Q772.7 818.31 779.33 812.06 Q804.92 787.89 815.08 754.06 c4.9 -16.35 7.66 -33.5 7.21 -51.02 Q821.69 679.9 816.47 658.76 Q816.25 657.84 815.67 656.97 A0.14 0.14 0 0 0 815.42 657.05 Q815.63 665.42 815.72 679.09 c0.09 14.64 -1.37 27.72 -4.29 42.35 Q809.21 732.56 805.94 740.96 Q805.48 742.15 801.82 750.33 Q798.78 757.15 797.5 759.63 Q784.62 784.59 762.09 802.82 Q760.67 803.97 751.04 811.75 A0.55 0.55 0 0 1 750.2 811.57 Q750.08 811.33 750.31 811.03 c16.01 -20.63 26.97 -45.35 32.92 -70.28 Q785.59 730.91 787.94 716.22 Q791.58 693.44 787.88 669.22 Q784.91 649.76 781.28 638 Q776.14 621.34 768.67 604.35 Q760.32 585.34 746.12 567.64 Q744.28 565.36 733.48 553.47 C721.25 540 708.36 527.76 696 514.43 Q677.67 494.67 668.44 485.25 c-2.46 -2.51 -6.25 -2.43 -9.77 -2.57 Q656.45 482.59 653.85 482.2 Q645.06 480.85 627.67 478.6 c-5.13 -0.67 -8.84 -1.54 -14.58 -2.66 Q597.7 472.92 571.26 465.47 Q565.23 463.77 560.35 464.65 Q552.95 465.99 542.53 468.26 Q525.78 471.92 505.01 472.38 Q483.04 472.87 462.32 466.85 Q454.44 464.57 445.9 459.44 c-11.1 -6.66 -18.1 -16.42 -20.98 -28.87 Q424.3 427.93 426.02 425.02 Q427.16 423.07 430.67 421.87 Q436.98 419.73 442.52 418.52 Q493.23 407.5 543.84 397.86 c7.79 -1.49 17.73 -2.07 26.91 -1.89 Q597.45 396.48 613 397.76 Q622.13 398.51 651.38 401.61 c9.15 0.97 21.24 2.86 27.5 4.02 Q694.07 408.44 707.59 415.03 Q711.83 417.1 716.38 420.76 Q724.03 426.92 724.59 427.4 c24.31 21.08 41.82 34.94 74.07 60.68 Q833.65 515.99 869.65 541.35 Q880.97 549.33 890.93 560.32 Q892.72 562.29 899.09 571 Q902.77 576.02 906.29 582.24 Q913.6 595.16 923.22 616.12 Q927.07 624.5 930.14 633.88 A0.37 0.37 0 0 0 930.86 633.84 Q931.2 632.24 930.87 630.12 Q929.37 620.66 927.17 607.82 c-1.02 -5.97 -2.64 -11.72 -4.15 -18.31 c-1.78 -7.76 -6.97 -19.17 -12.08 -28.52 c-6.58 -12.05 -15.47 -22.86 -25.65 -30.97 Q879.2 525.16 872.62 520.58 c-12.26 -8.55 -22.1 -15.46 -32.53 -23.81 Q824.01 483.91 794.56 460.25 c-7.75 -6.23 -14.92 -12.64 -22.6 -18.71 Q771.36 441.07 765.55 436.23 Q749.78 423.08 735.31 410.93 Q725.63 402.8 711.38 395.12 Q710.08 394.42 700.65 390.9 c-8.81 -3.28 -18.34 -4.75 -26.91 -6.61 Q666.72 382.77 657.66 381.98 Q644.52 380.84 630.75 380.22 c-4.22 -0.19 -6.63 -0.66 -10.34 -2.75 Q613.93 373.82 607.32 369.33 Q597.91 362.93 595.46 361.51 c-4.74 -2.75 -10.58 -6.64 -16.32 -9.54 Q562.39 343.5 557.98 341.27 Q551.82 338.15 532.98 326.85 c-12.41 -7.44 -24.23 -17.43 -33.93 -27.92 c-8.08 -8.74 -14.83 -21.53 -15.8 -33.18 c-0.4 -4.76 -0.31 -11.28 1.24 -16.11 A7.83 7.58 -21.7 0 1 485.18 248.11 Q488.23 242.99 489.16 241.78 c2.01 -2.62 6.84 -0.95 9.72 0.14 Q519.23 249.62 536.88 258.87 Q539.12 260.04 550.62 265.01 Q557.76 268.11 564.35 271.15 c32.29 14.92 66.84 30.37 99.95 46.42 Q679.65 325.02 690.11 330.72 Q692.72 332.14 715.64 344.37 Q729.95 352 743.12 362.06 Q749.25 366.75 755.9 373.49 c12.64 12.83 26.29 27.48 39.02 40.37 Q821.29 440.58 822.86 442.16 c9.28 9.38 16.3 15.75 25.73 24.94 Q851.73 470.17 859.01 476.58 Q905.31 517.4 919.16 530.62 Q930.26 541.21 939.59 556.86 Q944.4 564.93 953.33 587.21 Q966.15 619.2 981.15 652.86 Q991.03 675.03 996.36 687.24 Q1004.4 705.64 1008.61 713.99 c9.21 18.29 20.04 38.26 26.4 50.34 Q1041.92 777.45 1049.32 787.81 c10.47 14.67 21.84 26.55 35.23 40.77 A1.34 1.32 -64.8 0 1 1084.91 829.61 Q1083.02 848.98 1075.62 866.88 Q1068.68 883.67 1058.45 899.36 A0.57 0.57 0 0 0 1059.32 900.08 Q1071.55 888.61 1081.89 874.38 c7.09 -9.74 12.05 -20.4 16.86 -31.51 A0.66 0.65 29.6 0 1 1099.74 842.6 Q1102.76 844.8 1104.97 846.65 c3.92 3.28 7.73 4.95 13.68 8.1 A1.12 1.12 0 0 1 1119.17 856.16 Q1114.79 867.21 1109.73 876.78 c-4.85 9.16 -10.82 21.32 -16.52 30.58 Q1080.41 928.21 1076.52 933.54 Q1073.38 937.86 1065.47 948.24 c-3.39 4.46 -7.13 8.37 -10.44 12.87 Q1053.86 962.71 1050.74 966.17 c-15.64 17.33 -28.82 32.11 -44.82 45.76 A1.12 1.12 0 0 1 1004.49 1011.94 C989.74 999.66 974.6 988.64 958.31 981.91 C948.22 977.74 938.22 975 927.51 972.5 c-10.21 -2.37 -20.54 -3.24 -30.59 -3.38 Q883.19 968.93 865.25 968.53 Q837.56 967.92 805.72 958.85 Q792.4 955.06 780.32 950.37 c-13.88 -5.39 -28.04 -10.34 -39.77 -13.8 Q732.12 934.08 719.71 931.62 Q695.85 926.88 671.01 927.65 Q669.25 927.71 666.12 928.5 A0.12 0.12 0 0 0 666.13 928.73 Z" fill="#fffffe"/>
<path d="M911.42 491.65 A0.16 0.16 0 0 1 911.13 491.74 Q892.6 460.94 877.03 434.97 Q876.14 433.47 874.53 430.64 Q858.17 401.81 841.35 374.44 c-7.5 -12.2 -14.72 -22.36 -24.71 -33.13 Q800.15 323.57 790.7 314.82 Q786.99 311.38 783.33 307.93 Q776.32 301.31 777.68 291 Q778.54 284.45 779.91 278.64 Q782.67 266.95 792.67 259.42 c3.05 -2.29 5.21 -1.34 8.66 -1.22 A2.23 2.21 -23.6 0 1 802.73 258.74 Q803.68 259.56 804.61 261.14 Q832.94 308.98 869.72 369.28 Q876.74 380.78 886.46 401.31 Q887.53 403.58 889.44 408.9 c2.31 6.43 3.95 12.93 5.83 19.24 Q896.96 433.83 898.3 439.68 Q905.03 468.99 911.04 489.28 Q911.41 490.53 911.42 491.65 Z" fill="#fffffe"/>
<path d="M494.26 493.93 A0.54 0.53 -83.6 0 1 494.75 494.55 c-0.97 6.43 -2.6 13.22 -3.87 20.62 Q488.72 527.82 487.32 534.28 Q481.84 559.56 477.53 580.77 A0.64 0.64 0 0 0 478.16 581.54 h75.92 A0.95 0.94 5.5 0 0 555.01 580.78 L574.22 488.7 A0.69 0.69 0 0 1 575.09 488.18 c18.12 5.27 39.08 8.9 56.09 12.6 A0.97 0.97 0 0 1 631.93 501.93 L615.49 580.75 A0.63 0.62 -84.3 0 0 616.1 581.5 h73.05 A0.6 0.6 0 0 1 689.74 582.23 Q680.97 621.59 677.2 638.22 c-0.58 2.55 -1.44 3.34 -4.17 3.34 Q637.25 641.57 604.07 641.4 A1.07 1.07 0 0 0 603.02 642.25 L586.33 719.27 A0.44 0.44 0 0 0 586.76 719.8 h72.75 A0.67 0.67 0 0 1 660.16 720.61 L647.43 779.38 A0.87 0.86 -83.7 0 1 646.59 780.06 h-71.01 A1.52 1.51 6.2 0 0 574.1 781.25 L560.87 842.34 A1.03 1.02 4.8 0 1 559.92 843.14 Q552.58 843.47 544.54 845.07 Q519.59 850.04 497.35 862.1 A0.59 0.59 0 0 1 496.49 861.46 L513.92 781.02 A0.72 0.72 0 0 0 513.22 780.15 h-77.27 A0.31 0.3 -84.2 0 0 435.65 780.4 L415.8 875.57 A0.45 0.44 -82.5 0 1 415.34 875.93 c-19.02 -0.71 -38.71 -0.44 -59.57 -0.01 A0.62 0.62 0 0 1 355.14 875.24 c0.43 -4.38 0.71 -5.97 2.08 -11.3 Q358 860.92 358.78 857.07 Q364.13 830.58 369.87 804.43 Q370.67 800.81 374.53 781.21 A0.88 0.88 0 0 0 373.67 780.16 h-72.78 A0.12 0.12 0 0 1 300.77 780.02 Q308.07 748.42 313.19 720.49 A0.82 0.81 5 0 1 314 719.82 h72.29 A1.1 1.1 0 0 0 387.36 718.96 L403.92 642.49 A0.74 0.74 0 0 0 403.2 641.59 h-71.88 A0.75 0.75 0 0 1 330.59 640.69 L342.87 581.85 A0.4 0.39 5.2 0 1 343.26 581.53 h71.99 A1.46 1.46 0 0 0 416.7 580.26 c1.26 -9.31 3.42 -18.77 6.95 -34.92 Q430.43 514.36 436.71 481.35 A0.25 0.24 -73.2 0 1 437.04 481.17 Q464.91 491.99 494.26 493.93 Z M464.89 641.58 A0.68 0.68 0 0 0 464.22 642.12 L447.59 718.95 A0.68 0.68 0 0 0 448.25 719.77 h77.7 A0.68 0.68 0 0 0 526.62 719.23 L543.26 642.4 A0.68 0.68 0 0 0 542.6 641.58 h-77.71 Z" fill="#fffffe"/>
<path d="M464.89 641.58 h77.71 A0.68 0.68 0 0 1 543.26 642.4 L526.62 719.23 A0.68 0.68 0 0 1 525.95 719.77 h-77.7 A0.68 0.68 0 0 1 447.59 718.95 L464.22 642.12 A0.68 0.68 0 0 1 464.89 641.58 Z" fill="#161712"/>
<path d="M1144.05 850.05 A0.95 0.94 -60.9 0 1 1145.51 849.63 Q1163.71 863.53 1184.85 878.92 Q1203.65 892.6 1214.12 900.64 c4.39 3.37 9.08 5.78 13.27 9.21 Q1229.49 911.58 1233.75 914.53 A1.21 1.21 0 0 1 1234.19 915.98 Q1229.77 927.15 1224.02 939.78 c-1.07 2.37 -2.63 4.64 -3.71 6.92 c-9.08 19.04 -20.09 37.08 -31.42 55.19 c-4.23 6.76 -9.33 13.5 -13.01 18.98 Q1154.29 1053.05 1128.71 1081.41 Q1121.08 1089.87 1108.94 1101.79 c-13.22 12.99 -24.73 24.35 -37.86 35.71 A0.8 0.79 -46.6 0 1 1070.08 1137.53 c-9.56 -7.3 -17.42 -13.97 -27.53 -21.93 Q1019.22 1097.25 995.79 1078.71 Q985.44 1070.52 977.19 1064.61 A0.95 0.95 0 0 1 977.2 1063.06 Q992.31 1052.37 1004.47 1041.47 Q1029.27 1019.23 1037.01 1011.01 Q1037.21 1010.8 1048.63 998.9 Q1090.75 955.03 1120.5 901.27 Q1134.35 876.23 1144.05 850.05 Z M1063.32 1040.19 A27.54 27.07 -92.9 0 0 1037.67 1069.06 A27.54 27.07 -92.9 0 0 1066.1 1095.19 A27.54 27.07 -92.9 0 0 1091.75 1066.32 A27.54 27.07 -92.9 0 0 1063.32 1040.19 Z" fill="#fffffe"/>
<ellipse cx="0" cy="0" fill="#161712" rx="27.54" ry="27.07" transform="translate(1064.71 1067.69) rotate(-92.9)"/>
</svg>
